<svg width="64" height="64" viewBox="0 0 64 64" fill="none" xmlns="http://www.w3.org/2000/svg">
<rect width="64" height="64" rx="16" fill="black"/>
<path fill-rule="evenodd" clip-rule="evenodd" d="M17.963 23.8409C17.963 29.483 22.5369 34.0568 28.179 34.0568L28.179 29.9375C24.8119 29.9375 22.0824 27.208 22.0824 23.8409C22.0824 20.4739 24.8119 17.7443 28.179 17.7443H36.3771H44.5738C45.7114 17.7443 46.6335 16.8222 46.6335 15.6847C46.6335 14.5471 45.7114 13.625 44.5738 13.625H28.179C22.5369 13.625 17.963 18.1988 17.963 23.8409ZM45.9744 40.1534C45.9744 34.5113 41.4006 29.9375 35.7585 29.9375H28.179V34.0568L35.7585 34.0568C39.1256 34.0568 41.8551 36.7864 41.8551 40.1534C41.8551 43.5205 39.1256 46.25 35.7585 46.25H27.5604H19.3636C18.2261 46.25 17.304 47.1721 17.304 48.3097C17.304 49.4472 18.2261 50.3693 19.3636 50.3693H35.7585C41.4006 50.3693 45.9744 45.7955 45.9744 40.1534Z" fill="white"/>
<path fill-rule="evenodd" clip-rule="evenodd" d="M26.7784 23.8409C26.7784 24.6144 27.4055 25.2415 28.179 25.2415H52.8125C53.404 25.2415 53.8835 25.721 53.8835 26.3125C53.8835 26.904 53.404 27.3835 52.8125 27.3835H28.179C26.2224 27.3835 24.6364 25.7975 24.6364 23.8409C24.6364 21.8844 26.2224 20.2983 28.179 20.2983H50.7528C51.3443 20.2983 51.8239 20.7778 51.8239 21.3693C51.8239 21.9608 51.3443 22.4404 50.7528 22.4404H28.179C27.4055 22.4404 26.7784 23.0674 26.7784 23.8409Z" fill="white"/>
<path fill-rule="evenodd" clip-rule="evenodd" d="M39.3011 40.1534C39.3011 38.1969 37.7151 36.6108 35.7585 36.6108H11.125C10.5335 36.6108 10.054 37.0903 10.054 37.6818C10.054 38.2733 10.5335 38.7528 11.125 38.7528H35.7585C36.532 38.7528 37.1591 39.3799 37.1591 40.1534C37.1591 40.9269 36.532 41.554 35.7585 41.554H13.1847C12.5932 41.554 12.1136 42.0335 12.1136 42.625C12.1136 43.2165 12.5932 43.696 13.1847 43.696H35.7585C37.7151 43.696 39.3011 42.1099 39.3011 40.1534Z" fill="white"/>
<rect x="9.3949" y="31.9148" width="9.39205" height="2.14205" rx="1.07102" fill="white"/>
<rect x="54.5426" y="32.0796" width="9.39204" height="2.14205" rx="1.07102" transform="rotate(-180 54.5426 32.0796)" fill="white"/>
</svg>
