<svg width="512" height="512" viewBox="0 0 512 512" fill="none" xmlns="http://www.w3.org/2000/svg">
<path d="M207.32 217.691L207.326 217.703L207.332 217.715C212.225 227.777 214.818 240.429 214.818 255.909C214.818 271.389 212.225 284.041 207.332 294.103L207.326 294.115L207.32 294.127C202.409 304.34 195.882 311.802 187.829 316.815L187.821 316.82L187.814 316.825C179.727 321.892 170.66 324.455 160.455 324.455C150.252 324.455 141.15 321.894 132.996 316.82C125.001 311.807 118.468 304.34 113.493 294.116C108.654 284.049 106.091 271.392 106.091 255.909C106.091 240.427 108.654 227.77 113.492 217.703C118.468 207.478 125.001 200.011 132.997 194.998C141.151 189.924 150.252 187.364 160.455 187.364C170.66 187.364 179.727 189.926 187.814 194.993L187.821 194.998L187.829 195.003C195.882 200.016 202.409 207.478 207.32 217.691ZM268.182 349V355H274.182H313.545H319.545V349V278.091H387.455V349V355H393.455H432.727H438.727V349V162.818V156.818H432.727H393.455H387.455V162.818V233.636H319.545V162.818V156.818H313.545H274.182H268.182V162.818V349ZM237.376 309.483C244.961 294.183 248.636 276.261 248.636 255.909C248.636 235.557 244.961 217.635 237.376 202.335C229.841 187.136 219.396 175.227 206.007 166.827C192.604 158.417 177.358 154.273 160.455 154.273C143.551 154.273 128.305 158.417 114.902 166.827C101.513 175.227 91.0685 187.136 83.5334 202.335C75.9482 217.635 72.2727 235.557 72.2727 255.909C72.2727 276.261 75.9482 294.183 83.5334 309.483C91.0685 324.682 101.513 336.591 114.902 344.991C128.305 353.401 143.551 357.545 160.455 357.545C177.358 357.545 192.604 353.401 206.007 344.991C219.396 336.591 229.841 324.682 237.376 309.483Z" fill="black" stroke="white" stroke-width="12"/>
</svg>
